<svg width="44" height="44" viewBox="0 0 44 44" fill="none" xmlns="http://www.w3.org/2000/svg">
<path d="M21.9119 11.8803C21.9119 11.8803 17.7319 8.4483 21.4719 6.7323C21.5159 6.7323 21.5599 6.6883 21.6039 6.6883C22.8359 6.5123 23.8919 7.4803 23.8919 8.6683C23.8919 10.2083 21.9119 11.8803 21.9119 11.8803ZM11.4399 13.5523C10.4719 13.0243 9.28394 13.3323 8.71194 14.3003C8.18394 15.2683 8.49194 16.4563 9.45994 17.0283C10.8239 17.8203 13.2439 16.8963 13.2439 16.8963C13.2439 16.8963 12.8039 14.3443 11.4399 13.5523ZM9.45994 26.7963C8.49194 27.3243 8.18394 28.5563 8.71194 29.5243C9.23994 30.4923 10.4719 30.8003 11.4399 30.2723C12.8039 29.4803 13.2439 26.9283 13.2439 26.9283C13.2439 26.9283 10.8239 26.0043 9.45994 26.7963ZM19.9319 35.1563C19.9319 36.3443 20.9879 37.3123 22.2199 37.1363C22.2639 37.1363 22.3079 37.1363 22.3519 37.0923C26.0919 35.4203 21.9119 31.9443 21.9119 31.9443C21.9119 31.9443 19.9319 33.5723 19.9319 35.1563ZM32.3839 30.2283C33.3519 30.7563 34.5399 30.4483 35.1119 29.4803C35.6399 28.5123 35.3319 27.3243 34.3639 26.7523C32.9999 25.9603 30.5799 26.8843 30.5799 26.8843C30.5799 26.8843 31.0199 29.4803 32.3839 30.2283ZM34.3639 16.9843C35.3319 16.4563 35.6399 15.2243 35.1119 14.2563C34.5839 13.2883 33.3519 12.9803 32.3839 13.5083C31.0199 14.3003 30.5799 16.8523 30.5799 16.8523C30.5799 16.8523 32.9999 17.7763 34.3639 16.9843ZM31.6359 4.4443C31.8559 4.3123 32.1639 4.4883 32.1639 4.7523C31.8119 10.1203 27.3679 14.3883 21.9119 14.3883C16.4559 14.3883 12.0119 10.1203 11.6599 4.7523C11.6599 4.4883 11.9679 4.3123 12.1879 4.4443C16.6759 7.4363 18.1279 13.4203 15.3999 18.1283C12.6719 22.8803 6.77594 24.5963 1.93594 22.2203C1.87696 22.1933 1.82698 22.1499 1.79195 22.0953C1.75691 22.0407 1.73828 21.9772 1.73828 21.9123C1.73828 21.8474 1.75691 21.7839 1.79195 21.7293C1.82698 21.6747 1.87696 21.6313 1.93594 21.6043C6.73194 19.1843 12.6719 20.9443 15.3999 25.6523C18.1279 30.3603 16.6759 36.3883 12.1879 39.3363C11.9679 39.4683 11.6599 39.2923 11.6599 39.0283C11.9679 33.6603 16.4559 29.3923 21.9119 29.3923C27.3679 29.3923 31.8119 33.6603 32.1639 39.0283C32.1639 39.2923 31.8559 39.4683 31.6359 39.3363C27.1479 36.3443 25.6959 30.3603 28.4239 25.6523C31.1519 20.9443 37.0479 19.1843 41.8879 21.6043C42.1519 21.7363 42.1519 22.0883 41.8879 22.2203C37.0919 24.6403 31.1519 22.8803 28.4239 18.1723C25.6959 13.4203 27.1479 7.4363 31.6359 4.4443Z" stroke="#E3F5FF" stroke-width="1.76" stroke-miterlimit="10"/>
</svg>
